# xmcd
# 
# Track frame offsets:
#     150
#     16553
#     28833
#     44893
#     63763
#     76893
#     92038
#     113486
#     129930
#     145208
#     161672
#     181410
# 
# Disc length: 2690
# 
# Revision: 4
# Processed by: cddbd v1.5.2PL0 Copyright (c) Steve Scherf et al.
# Submitted via: fre:ac v1.0.31
# 
DISCID=920a800c
DTITLE=Samantha Fish - Girls With Guitars
DYEAR=2011
DGENRE=Blues
TTITLE0=Bitch
TTITLE1=Satisfy My Soul
TTITLE2=Mr. Loving Man
TTITLE3=We Ain't Gonna Get Out Alive
TTITLE4=Reason To Stay
TTITLE5=Get Back
TTITLE6=Come On Home
TTITLE7=Leaving Chicago
TTITLE8=Wait A Minute
TTITLE9=Move On
TTITLE10=Are You Ready
TTITLE11=Jet Airliner
EXTD=
EXTT0=
EXTT1=
EXTT2=
EXTT3=
EXTT4=
EXTT5=
EXTT6=
EXTT7=
EXTT8=
EXTT9=
EXTT10=
EXTT11=
PLAYORDER=
